<?xml version="1.0" encoding="UTF-8" standalone="no"?>
<!DOCTYPE svg PUBLIC "-//W3C//DTD SVG 1.1//EN"
 "http://www.w3.org/Graphics/SVG/1.1/DTD/svg11.dtd">
<!-- Generated by graphviz version 2.40.1 (20161225.0304)
 -->
<!-- Title: CONSORT Pages: 1 -->
<svg width="1022pt" height="720pt"
 viewBox="0.00 0.00 1021.53 720.00" xmlns="http://www.w3.org/2000/svg" xmlns:xlink="http://www.w3.org/1999/xlink">
<g id="graph0" class="graph" transform="scale(1 1) rotate(0) translate(4 716)">
<title>CONSORT</title>
<polygon fill="#ffffff" stroke="transparent" points="-4,4 -4,-716 1017.5325,-716 1017.5325,4 -4,4"/>
<!-- total -->
<g id="node1" class="node">
<title>total</title>
<polygon fill="#e8f4fa" stroke="#000000" points="976.2476,-712 822.6534,-712 822.6534,-676 976.2476,-676 976.2476,-712"/>
<text text-anchor="middle" x="899.4505" y="-697" font-family="Arial" font-size="10.00" fill="#000000">NHANES 2007&#45;2018 (6 cycles)</text>
<text text-anchor="middle" x="899.4505" y="-685" font-family="Arial" font-size="10.00" fill="#000000">N = 59,842</text>
</g>
<!-- female -->
<g id="node2" class="node">
<title>female</title>
<polygon fill="#e8f4fa" stroke="#000000" points="877.1408,-640 811.7602,-640 811.7602,-604 877.1408,-604 877.1408,-640"/>
<text text-anchor="middle" x="844.4505" y="-625" font-family="Arial" font-size="10.00" fill="#000000">Women</text>
<text text-anchor="middle" x="844.4505" y="-613" font-family="Arial" font-size="10.00" fill="#000000">N = 30,213</text>
</g>
<!-- total&#45;&gt;female -->
<g id="edge1" class="edge">
<title>total&#45;&gt;female</title>
<path fill="none" stroke="#000000" d="M849.7988,-675.8314C849.7988,-675.8314 849.7988,-650.4133 849.7988,-650.4133"/>
<polygon fill="#000000" stroke="#000000" points="853.2988,-650.4132 849.7988,-640.4133 846.2988,-650.4133 853.2988,-650.4132"/>
</g>
<!-- e1 -->
<g id="node10" class="node">
<title>e1</title>
<polygon fill="#e8f4fa" stroke="transparent" points="995.5796,-640 913.3214,-640 913.3214,-604 995.5796,-604 995.5796,-640"/>
<text text-anchor="middle" x="954.4505" y="-625" font-family="Arial" font-size="10.00" fill="#000000">Excluded: men</text>
<text text-anchor="middle" x="954.4505" y="-613" font-family="Arial" font-size="10.00" fill="#000000">29,629</text>
</g>
<!-- total&#45;&gt;e1 -->
<g id="edge2" class="edge">
<title>total&#45;&gt;e1</title>
<path fill="none" stroke="#000000" d="M944.8675,-675.8314C944.8675,-675.8314 944.8675,-650.4133 944.8675,-650.4133"/>
<polygon fill="#000000" stroke="#000000" points="948.3676,-650.4132 944.8675,-640.4133 941.3676,-650.4133 948.3676,-650.4132"/>
</g>
<!-- adult -->
<g id="node3" class="node">
<title>adult</title>
<polygon fill="#e8f4fa" stroke="#000000" points="815.0906,-568 697.8104,-568 697.8104,-532 815.0906,-532 815.0906,-568"/>
<text text-anchor="middle" x="756.4505" y="-553" font-family="Arial" font-size="10.00" fill="#000000">Aged 20 years or older</text>
<text text-anchor="middle" x="756.4505" y="-541" font-family="Arial" font-size="10.00" fill="#000000">N = 17,907</text>
</g>
<!-- female&#45;&gt;adult -->
<g id="edge3" class="edge">
<title>female&#45;&gt;adult</title>
<path fill="none" stroke="#000000" d="M833.1945,-603.8314C833.1945,-582.502 833.1945,-550 833.1945,-550 833.1945,-550 825.395,-550 825.395,-550"/>
<polygon fill="#000000" stroke="#000000" points="825.395,-546.5001 815.395,-550 825.395,-553.5001 825.395,-546.5001"/>
</g>
<!-- e2 -->
<g id="node11" class="node">
<title>e2</title>
<polygon fill="#e8f4fa" stroke="transparent" points="1013.6146,-568 851.2864,-568 851.2864,-532 1013.6146,-532 1013.6146,-568"/>
<text text-anchor="middle" x="932.4505" y="-553" font-family="Arial" font-size="10.00" fill="#000000">Excluded: younger than 20 years</text>
<text text-anchor="middle" x="932.4505" y="-541" font-family="Arial" font-size="10.00" fill="#000000">12,306</text>
</g>
<!-- female&#45;&gt;e2 -->
<g id="edge4" class="edge">
<title>female&#45;&gt;e2</title>
<path fill="none" stroke="#000000" d="M864.207,-603.8314C864.207,-603.8314 864.207,-578.4133 864.207,-578.4133"/>
<polygon fill="#000000" stroke="#000000" points="867.7071,-578.4132 864.207,-568.4133 860.7071,-578.4133 867.7071,-578.4132"/>
</g>
<!-- pregnant -->
<g id="node4" class="node">
<title>pregnant</title>
<polygon fill="#e8f4fa" stroke="#000000" points="744.5836,-496 592.3174,-496 592.3174,-460 744.5836,-460 744.5836,-496"/>
<text text-anchor="middle" x="668.4505" y="-481" font-family="Arial" font-size="10.00" fill="#000000">One or more prior pregnancies</text>
<text text-anchor="middle" x="668.4505" y="-469" font-family="Arial" font-size="10.00" fill="#000000">N = 12,952</text>
</g>
<!-- adult&#45;&gt;pregnant -->
<g id="edge5" class="edge">
<title>adult&#45;&gt;pregnant</title>
<path fill="none" stroke="#000000" d="M721.1988,-531.8314C721.1988,-531.8314 721.1988,-506.4133 721.1988,-506.4133"/>
<polygon fill="#000000" stroke="#000000" points="724.6988,-506.4132 721.1988,-496.4133 717.6988,-506.4133 724.6988,-506.4132"/>
</g>
<!-- e3 -->
<g id="node12" class="node">
<title>e3</title>
<polygon fill="#e8f4fa" stroke="transparent" points="910.3795,-496 780.5215,-496 780.5215,-460 910.3795,-460 910.3795,-496"/>
<text text-anchor="middle" x="845.4505" y="-481" font-family="Arial" font-size="10.00" fill="#000000">Excluded: never pregnant</text>
<text text-anchor="middle" x="845.4505" y="-469" font-family="Arial" font-size="10.00" fill="#000000">4,955</text>
</g>
<!-- adult&#45;&gt;e3 -->
<g id="edge6" class="edge">
<title>adult&#45;&gt;e3</title>
<path fill="none" stroke="#000000" d="M797.7533,-531.8314C797.7533,-531.8314 797.7533,-506.4133 797.7533,-506.4133"/>
<polygon fill="#000000" stroke="#000000" points="801.2533,-506.4132 797.7533,-496.4133 794.2533,-506.4133 801.2533,-506.4132"/>
</g>
<!-- gdm -->
<g id="node5" class="node">
<title>gdm</title>
<polygon fill="#e8f4fa" stroke="#000000" points="635.3775,-424 455.5235,-424 455.5235,-388 635.3775,-388 635.3775,-424"/>
<text text-anchor="middle" x="545.4505" y="-409" font-family="Arial" font-size="10.00" fill="#000000">Gestational&#45;diabetes history reported</text>
<text text-anchor="middle" x="545.4505" y="-397" font-family="Arial" font-size="10.00" fill="#000000">N = 12,923</text>
</g>
<!-- pregnant&#45;&gt;gdm -->
<g id="edge7" class="edge">
<title>pregnant&#45;&gt;gdm</title>
<path fill="none" stroke="#000000" d="M613.899,-459.8314C613.899,-459.8314 613.899,-434.4133 613.899,-434.4133"/>
<polygon fill="#000000" stroke="#000000" points="617.3991,-434.4132 613.899,-424.4133 610.3991,-434.4133 617.3991,-434.4132"/>
</g>
<!-- e4 -->
<g id="node13" class="node">
<title>e4</title>
<polygon fill="#e8f4fa" stroke="transparent" points="912.0155,-424 670.8855,-424 670.8855,-388 912.0155,-388 912.0155,-424"/>
<text text-anchor="middle" x="791.4505" y="-409" font-family="Arial" font-size="10.00" fill="#000000">Excluded: gestational&#45;diabetes history not reported</text>
<text text-anchor="middle" x="791.4505" y="-397" font-family="Arial" font-size="10.00" fill="#000000">29</text>
</g>
<!-- pregnant&#45;&gt;e4 -->
<g id="edge8" class="edge">
<title>pregnant&#45;&gt;e4</title>
<path fill="none" stroke="#000000" d="M707.7175,-459.8314C707.7175,-459.8314 707.7175,-434.4133 707.7175,-434.4133"/>
<polygon fill="#000000" stroke="#000000" points="711.2176,-434.4132 707.7175,-424.4133 704.2176,-434.4133 711.2176,-434.4132"/>
</g>
<!-- diet -->
<g id="node6" class="node">
<title>diet</title>
<polygon fill="#e8f4fa" stroke="#000000" points="519.2387,-352 295.6623,-352 295.6623,-316 519.2387,-316 519.2387,-352"/>
<text text-anchor="middle" x="407.4505" y="-337" font-family="Arial" font-size="10.00" fill="#000000">Plausible energy intake and complete diet data</text>
<text text-anchor="middle" x="407.4505" y="-325" font-family="Arial" font-size="10.00" fill="#000000">N = 12,180</text>
</g>
<!-- gdm&#45;&gt;diet -->
<g id="edge9" class="edge">
<title>gdm&#45;&gt;diet</title>
<path fill="none" stroke="#000000" d="M487.2908,-387.8314C487.2908,-387.8314 487.2908,-362.4133 487.2908,-362.4133"/>
<polygon fill="#000000" stroke="#000000" points="490.7908,-362.4132 487.2908,-352.4133 483.7908,-362.4133 490.7908,-362.4132"/>
</g>
<!-- e5 -->
<g id="node14" class="node">
<title>e5</title>
<polygon fill="#e8f4fa" stroke="transparent" points="812.1126,-352 554.7884,-352 554.7884,-316 812.1126,-316 812.1126,-352"/>
<text text-anchor="middle" x="683.4505" y="-337" font-family="Arial" font-size="10.00" fill="#000000">Excluded: implausible energy intake or incomplete diet</text>
<text text-anchor="middle" x="683.4505" y="-325" font-family="Arial" font-size="10.00" fill="#000000">743</text>
</g>
<!-- gdm&#45;&gt;e5 -->
<g id="edge10" class="edge">
<title>gdm&#45;&gt;e5</title>
<path fill="none" stroke="#000000" d="M595.1418,-387.8314C595.1418,-387.8314 595.1418,-362.4133 595.1418,-362.4133"/>
<polygon fill="#000000" stroke="#000000" points="598.6418,-362.4132 595.1418,-352.4133 591.6418,-362.4133 598.6418,-362.4132"/>
</g>
<!-- sleep -->
<g id="node7" class="node">
<title>sleep</title>
<polygon fill="#e8f4fa" stroke="#000000" points="391.8745,-280 187.0265,-280 187.0265,-244 391.8745,-244 391.8745,-280"/>
<text text-anchor="middle" x="289.4505" y="-265" font-family="Arial" font-size="10.00" fill="#000000">Three or more evaluable sleep dimensions</text>
<text text-anchor="middle" x="289.4505" y="-253" font-family="Arial" font-size="10.00" fill="#000000">N = 12,165</text>
</g>
<!-- diet&#45;&gt;sleep -->
<g id="edge11" class="edge">
<title>diet&#45;&gt;sleep</title>
<path fill="none" stroke="#000000" d="M343.8595,-315.8314C343.8595,-315.8314 343.8595,-290.4133 343.8595,-290.4133"/>
<polygon fill="#000000" stroke="#000000" points="347.3596,-290.4132 343.8595,-280.4133 340.3596,-290.4133 347.3596,-290.4132"/>
</g>
<!-- e6 -->
<g id="node15" class="node">
<title>e6</title>
<polygon fill="#e8f4fa" stroke="transparent" points="625.1667,-280 427.7343,-280 427.7343,-244 625.1667,-244 625.1667,-280"/>
<text text-anchor="middle" x="526.4505" y="-265" font-family="Arial" font-size="10.00" fill="#000000">Excluded: fewer than 3 sleep dimensions</text>
<text text-anchor="middle" x="526.4505" y="-253" font-family="Arial" font-size="10.00" fill="#000000">15</text>
</g>
<!-- diet&#45;&gt;e6 -->
<g id="edge12" class="edge">
<title>diet&#45;&gt;e6</title>
<path fill="none" stroke="#000000" d="M473.3435,-315.8314C473.3435,-315.8314 473.3435,-290.4133 473.3435,-290.4133"/>
<polygon fill="#000000" stroke="#000000" points="476.8436,-290.4132 473.3435,-280.4133 469.8436,-290.4133 476.8436,-290.4132"/>
</g>
<!-- cov -->
<g id="node8" class="node">
<title>cov</title>
<polygon fill="#e8f4fa" stroke="#000000" points="258.1229,-208 120.7781,-208 120.7781,-172 258.1229,-172 258.1229,-208"/>
<text text-anchor="middle" x="189.4505" y="-193" font-family="Arial" font-size="10.00" fill="#000000">Eligible for mortality linkage</text>
<text text-anchor="middle" x="189.4505" y="-181" font-family="Arial" font-size="10.00" fill="#000000">N = 12,136</text>
</g>
<!-- sleep&#45;&gt;cov -->
<g id="edge13" class="edge">
<title>sleep&#45;&gt;cov</title>
<path fill="none" stroke="#000000" d="M222.6375,-243.8314C222.6375,-243.8314 222.6375,-218.4133 222.6375,-218.4133"/>
<polygon fill="#000000" stroke="#000000" points="226.1376,-218.4132 222.6375,-208.4133 219.1376,-218.4133 226.1376,-218.4132"/>
</g>
<!-- e7 -->
<g id="node16" class="node">
<title>e7</title>
<polygon fill="#e8f4fa" stroke="transparent" points="484.9725,-208 293.9285,-208 293.9285,-172 484.9725,-172 484.9725,-208"/>
<text text-anchor="middle" x="389.4505" y="-193" font-family="Arial" font-size="10.00" fill="#000000">Excluded: ineligible for mortality linkage</text>
<text text-anchor="middle" x="389.4505" y="-181" font-family="Arial" font-size="10.00" fill="#000000">29</text>
</g>
<!-- sleep&#45;&gt;e7 -->
<g id="edge14" class="edge">
<title>sleep&#45;&gt;e7</title>
<path fill="none" stroke="#000000" d="M342.926,-243.8314C342.926,-243.8314 342.926,-218.4133 342.926,-218.4133"/>
<polygon fill="#000000" stroke="#000000" points="346.4261,-218.4132 342.926,-208.4133 339.4261,-218.4133 346.4261,-218.4132"/>
</g>
<!-- final -->
<g id="node9" class="node">
<title>final</title>
<polygon fill="#ffe5a0" stroke="#000000" stroke-width="2" points="169.2397,-136 35.6613,-136 35.6613,-92 169.2397,-92 169.2397,-136"/>
<text text-anchor="middle" x="102.4505" y="-123" font-family="Arial" font-size="10.00" fill="#000000">Final analytic sample</text>
<text text-anchor="middle" x="102.4505" y="-111" font-family="Arial" font-size="10.00" fill="#000000">(core covariates complete)</text>
<text text-anchor="middle" x="102.4505" y="-99" font-family="Arial" font-size="10.00" fill="#000000">N = 10,931</text>
</g>
<!-- cov&#45;&gt;final -->
<g id="edge15" class="edge">
<title>cov&#45;&gt;final</title>
<path fill="none" stroke="#000000" d="M144.9798,-171.9891C144.9798,-171.9891 144.9798,-146.2282 144.9798,-146.2282"/>
<polygon fill="#000000" stroke="#000000" points="148.4798,-146.2282 144.9798,-136.2282 141.4798,-146.2282 148.4798,-146.2282"/>
</g>
<!-- e8 -->
<g id="node17" class="node">
<title>e8</title>
<polygon fill="#e8f4fa" stroke="transparent" points="349.8595,-132 205.0415,-132 205.0415,-96 349.8595,-96 349.8595,-132"/>
<text text-anchor="middle" x="277.4505" y="-117" font-family="Arial" font-size="10.00" fill="#000000">Excluded: missing covariates</text>
<text text-anchor="middle" x="277.4505" y="-105" font-family="Arial" font-size="10.00" fill="#000000">1,205</text>
</g>
<!-- cov&#45;&gt;e8 -->
<g id="edge16" class="edge">
<title>cov&#45;&gt;e8</title>
<path fill="none" stroke="#000000" d="M231.6413,-171.9891C231.6413,-171.9891 231.6413,-142.145 231.6413,-142.145"/>
<polygon fill="#000000" stroke="#000000" points="235.1413,-142.145 231.6413,-132.145 228.1413,-142.1451 235.1413,-142.145"/>
</g>
<!-- outcomes -->
<g id="node18" class="node">
<title>outcomes</title>
<polygon fill="#d4efdf" stroke="#000000" points="204.8515,-56 .0495,-56 .0495,0 204.8515,0 204.8515,-56"/>
<text text-anchor="middle" x="102.4505" y="-43" font-family="Arial" font-size="10.00" fill="#000000">Outcomes:</text>
<text text-anchor="middle" x="102.4505" y="-31" font-family="Arial" font-size="10.00" fill="#000000">&#45; All&#45;cause death: 894 (8.2%)</text>
<text text-anchor="middle" x="102.4505" y="-19" font-family="Arial" font-size="10.00" fill="#000000">&#45; CVD death: 251 (2.3%)</text>
<text text-anchor="middle" x="102.4505" y="-7" font-family="Arial" font-size="10.00" fill="#000000">&#45; Composite CVD (self&#45;rep): 1,098 (10.0%)</text>
</g>
<!-- final&#45;&gt;outcomes -->
<g id="edge17" class="edge">
<title>final&#45;&gt;outcomes</title>
<path fill="none" stroke="#000000" d="M102.4505,-91.8529C102.4505,-91.8529 102.4505,-66.2508 102.4505,-66.2508"/>
<polygon fill="#000000" stroke="#000000" points="105.9506,-66.2508 102.4505,-56.2508 98.9506,-66.2508 105.9506,-66.2508"/>
</g>
</g>
</svg>

